<svg width="48" height="48" viewBox="0 0 48 48" fill="none" xmlns="http://www.w3.org/2000/svg">
<rect width="48" height="48" rx="6" fill="#F2E9DF"/>
<path d="M30.75 19.5H30V17.25C30 16.0095 28.9905 15 27.75 15H20.25C19.0095 15 18 16.0095 18 17.25V19.5H17.25C16.0095 19.5 15 20.5095 15 21.75V33H33V21.75C33 20.5095 31.9905 19.5 30.75 19.5ZM16.5 31.5V21.75C16.5 21.3368 16.836 21 17.25 21H18V31.5H16.5ZM28.5 31.5H19.5V17.25C19.5 16.8368 19.836 16.5 20.25 16.5H27.75C28.164 16.5 28.5 16.8368 28.5 17.25V31.5ZM31.5 31.5H30V21H30.75C31.164 21 31.5 21.3368 31.5 21.75V31.5ZM21 24.75H23.25V26.25H21V24.75ZM24.75 24.75H27V26.25H24.75V24.75ZM21 27.75H23.25V29.25H21V27.75ZM24.75 27.75H27V29.25H24.75V27.75ZM23.25 22.5V21H21.75V19.5H23.25V18H24.75V19.5H26.25V21H24.75V22.5H23.25Z" fill="#E1811F"/>
</svg>
