<svg width="48" height="48" viewBox="0 0 48 48" fill="none" xmlns="http://www.w3.org/2000/svg">
<rect width="48" height="48" rx="6" fill="#F2E9DF"/>
<path d="M27 16L33 18V23H30V31C30 31.2652 29.8946 31.5196 29.7071 31.7071C29.5196 31.8946 29.2652 32 29 32H19C18.7348 32 18.4804 31.8946 18.2929 31.7071C18.1054 31.5196 18 31.2652 18 31V23H15V18L21 16C21 16.7956 21.3161 17.5587 21.8787 18.1213C22.4413 18.6839 23.2044 19 24 19C24.7956 19 25.5587 18.6839 26.1213 18.1213C26.6839 17.5587 27 16.7956 27 16Z" stroke="#E1811F" stroke-width="2" stroke-linecap="round" stroke-linejoin="round"/>
</svg>
